<?xml version="1.0" standalone="no"?>
<!DOCTYPE svg PUBLIC "-//W3C//DTD SVG 20010904//EN"
 "http://www.w3.org/TR/2001/REC-SVG-20010904/DTD/svg10.dtd">
<svg version="1.0" xmlns="http://www.w3.org/2000/svg"
 width="192.000000pt" height="192.000000pt" viewBox="0 0 192.000000 192.000000"
 preserveAspectRatio="xMidYMid meet">

<g transform="translate(0.000000,192.000000) scale(0.100000,-0.100000)"
fill="#000000" stroke="none">
<path d="M0 960 l0 -960 960 0 960 0 0 960 0 960 -960 0 -960 0 0 -960z m1383
387 c70 -35 119 -88 146 -161 11 -31 21 -61 21 -66 0 -6 -37 -10 -85 -10 l-85
0 -14 33 c-55 134 -247 103 -291 -47 -18 -59 -19 -184 -4 -241 24 -86 85 -131
166 -122 54 6 89 29 110 72 l17 35 83 0 c46 0 83 -4 83 -8 0 -5 -6 -30 -14
-56 -20 -67 -75 -129 -144 -163 -50 -25 -68 -28 -152 -28 -84 0 -102 3 -152
28 -133 65 -197 200 -185 389 11 186 91 310 229 360 78 27 196 21 271 -15z
m-595 -264 c-4 -205 -9 -298 -18 -323 -22 -59 -69 -119 -108 -139 -159 -81
-334 -22 -388 131 -8 22 -14 51 -14 64 0 23 2 24 85 24 84 0 86 0 95 -27 17
-48 26 -58 64 -70 31 -11 42 -10 66 2 47 25 53 56 58 353 l4 272 80 0 80 0 -4
-287z"/>
</g>
</svg>
